<?xml version="1.0" standalone="no"?>
<!DOCTYPE svg PUBLIC "-//W3C//DTD SVG 20010904//EN"
 "http://www.w3.org/TR/2001/REC-SVG-20010904/DTD/svg10.dtd">
<svg version="1.0" xmlns="http://www.w3.org/2000/svg"
 width="300.000000pt" height="83.000000pt" viewBox="0 0 300.000000 83.000000"
 preserveAspectRatio="xMidYMid meet">

<g transform="translate(0.000000,83.000000) scale(0.100000,-0.100000)"
fill="#000000" stroke="none">
<path d="M2 413 l3 -408 310 0 310 0 3 408 2 407 -315 0 -315 0 2 -407z m608
-3 l0 -400 -298 2 -297 3 -3 398 -2 397 300 0 300 0 0 -400z"/>
<path d="M120 410 l0 -290 50 0 50 0 0 120 0 120 120 0 120 0 0 50 0 50 -120
0 -120 0 0 70 0 70 145 0 145 0 0 50 0 50 -195 0 -195 0 0 -290z"/>
<path d="M1423 810 c-78 -18 -123 -76 -123 -155 0 -30 8 -64 19 -85 43 -81
178 -106 241 -45 36 35 37 42 6 56 -20 10 -28 8 -47 -10 -55 -51 -150 -4 -151
75 0 54 16 83 58 100 39 16 75 10 99 -16 14 -15 21 -17 41 -8 13 6 24 17 24
23 0 18 -35 45 -77 61 -43 15 -45 15 -90 4z"/>
<path d="M2778 808 c-47 -13 -103 -73 -112 -121 -26 -139 116 -242 243 -177
54 27 81 74 81 142 0 113 -100 187 -212 156z m110 -71 c24 -20 42 -73 36 -106
-10 -46 -50 -81 -93 -81 -47 0 -77 21 -91 65 -19 58 6 117 60 138 21 8 70 -1
88 -16z"/>
<path d="M752 653 l3 -157 30 0 30 0 3 67 3 67 75 0 75 0 -3 28 c-3 27 -4 27
-76 27 l-72 0 0 33 0 32 75 0 75 0 0 30 0 30 -110 0 -111 0 3 -157z"/>
<path d="M1081 788 c-54 -141 -111 -290 -111 -291 0 -1 17 -2 37 -1 32 1 40 6
47 28 9 25 13 26 77 26 64 0 69 -2 81 -27 10 -20 21 -26 46 -27 17 -1 32 3 32
8 0 5 -26 76 -57 158 l-58 148 -43 0 c-35 0 -44 -4 -51 -22z m99 -175 c0 -2
-20 -3 -45 -3 -25 0 -45 4 -45 9 0 7 19 67 36 111 4 9 15 -11 30 -50 13 -36
24 -66 24 -67z"/>
<path d="M1642 685 l3 -125 32 -31 c57 -57 180 -50 225 13 19 28 22 44 22 147
l1 116 -32 3 -31 3 -4 -109 c-2 -91 -6 -114 -22 -131 -23 -25 -72 -28 -104 -5
-21 14 -22 23 -22 130 l0 114 -36 0 -36 0 4 -125z"/>
<path d="M1990 655 l0 -155 25 0 c14 0 28 0 33 0 4 0 9 43 12 95 l5 95 71 -98
c64 -87 75 -97 103 -97 l31 0 0 158 0 157 -30 0 -30 0 0 -95 c0 -52 -3 -95 -7
-94 -5 0 -39 43 -76 95 -64 87 -71 94 -103 94 l-34 0 0 -155z"/>
<path d="M2340 653 l0 -158 90 2 c102 3 136 16 172 65 31 44 33 134 2 174 -43
58 -68 69 -170 72 l-94 4 0 -159z m191 68 c71 -71 3 -184 -101 -169 -24 3 -25
5 -28 101 l-3 97 51 0 c44 0 56 -5 81 -29z"/>
<path d="M2527 392 c-15 -15 -27 -31 -27 -34 0 -16 47 4 74 32 l31 30 -26 0
c-15 0 -36 -12 -52 -28z"/>
<path d="M750 170 l0 -160 35 0 35 0 0 65 0 65 75 0 75 0 0 30 0 30 -75 0 -75
0 0 35 0 35 75 0 75 0 0 30 0 30 -110 0 -110 0 0 -160z"/>
<path d="M1027 324 c-4 -4 -7 -76 -7 -161 l0 -153 116 0 115 0 -3 28 c-3 27
-4 27 -80 30 l-78 3 0 34 0 35 75 0 75 0 0 30 0 30 -75 0 -75 0 0 35 0 35 81
0 80 0 -3 28 -3 27 -106 3 c-58 1 -108 -1 -112 -4z"/>
<path d="M1307 323 c-4 -3 -7 -75 -7 -160 l0 -153 35 0 35 0 0 55 c0 52 1 55
24 55 20 0 31 -11 53 -52 25 -48 32 -53 66 -56 20 -2 37 0 37 4 0 4 -14 29
-30 56 l-31 49 31 29 c25 23 30 36 30 73 0 56 -22 85 -75 97 -47 11 -159 13
-168 3z m163 -73 c11 -11 20 -24 20 -29 0 -23 -34 -41 -76 -41 l-44 0 0 45 0
45 40 0 c27 0 47 -7 60 -20z"/>
<path d="M1610 170 l0 -160 30 0 c30 0 30 1 30 55 0 53 1 55 28 55 23 0 32 -9
57 -55 28 -52 31 -55 68 -55 42 0 42 0 -9 81 l-23 36 24 13 c46 25 59 99 25
143 -26 33 -75 47 -162 47 l-68 0 0 -160z m161 90 c21 -12 25 -50 7 -68 -7 -7
-34 -12 -60 -12 l-48 0 0 38 c0 21 3 42 7 45 10 11 72 8 94 -3z"/>
<path d="M1917 324 c-4 -4 -7 -76 -7 -161 l0 -153 115 0 115 0 0 30 0 30 -80
0 -80 0 0 35 0 35 75 0 75 0 0 30 0 30 -75 0 -75 0 0 35 0 35 81 0 80 0 -3 28
-3 27 -106 3 c-58 1 -108 -1 -112 -4z"/>
<path d="M2198 324 c-5 -4 -8 -76 -8 -161 l0 -153 35 0 35 0 0 55 c0 51 2 55
24 55 19 0 31 -12 55 -55 28 -50 34 -55 66 -55 19 0 35 3 35 6 0 4 -14 29 -31
57 l-31 51 25 18 c38 28 52 78 33 121 -8 20 -25 41 -37 48 -26 14 -190 25
-201 13z m160 -70 c45 -32 15 -74 -54 -74 l-44 0 0 45 0 45 38 0 c21 0 48 -7
60 -16z"/>
<path d="M2500 170 l0 -160 30 0 30 0 0 160 0 160 -30 0 -30 0 0 -160z"/>
<path d="M2711 308 c-5 -13 -32 -81 -60 -153 -28 -72 -51 -133 -51 -137 0 -5
16 -8 35 -8 29 0 37 5 45 25 9 23 14 25 78 25 64 0 70 -2 80 -25 9 -20 19 -25
47 -25 19 0 35 2 35 4 0 2 -27 73 -59 157 l-59 154 -41 3 c-35 3 -42 0 -50
-20z m78 -130 l21 -58 -51 0 c-37 0 -50 4 -46 13 2 6 13 36 23 64 10 29 21 49
25 45 4 -4 16 -33 28 -64z"/>
</g>
</svg>
